# xmcd
#
# Track frame offsets:
#	150
#	16618
#	37787
#	56716
#	74503
#	89525
#	109318
#	122845
#	136613
#	151258
#	166761
#	179371
#	191838
#	204988
#	223852
#	239828
#	254947
#	272141
#	291070
#	304838
#
# Disc length: 4230 seconds
#
# Revision: 2
# Processed by: cddbd v1.5.2PL0 Copyright (c) Steve Scherf et al.
# Submitted via: audiograbber 1.83.01
#
DISCID=2d108414
DTITLE=Various Artist - TT037
DYEAR=1900
DGENRE=Karaoke
TTITLE0=Byrd, Tracy And Chesnutt, Mark - A Good Way To Get On My Bad Side
TTITLE1=Dixie Chicks - Goodbye Earl
TTITLE2=Judd, Cledus T - Goodbye Squirrel
TTITLE3=McGraw, Tim - Grown Men Don't Cry
TTITLE4=Kershaw, Sammy And Morgan, Lorrie - He Drinks Tequila
TTITLE5=Lonestar - I'm Already There
TTITLE6=McGraw, Tim - Indian Outlaw
TTITLE7=Judd, Cledus T - Indian Inlaws
TTITLE8=Sawyer Brown - Lookin' For Love
TTITLE9=Paisley, Brad - Me Neither
TTITLE10=Judd, Cledus T - More Beaver
TTITLE11=Trick Pony - Pour Me
TTITLE12=Rogers, Kenny - There You Go Again
TTITLE13=Paisley, Brad - Two People Fell In Love
TTITLE14=Rascal Flatts - While You Loved Me
TTITLE15=Alabama - Will You Marry Me
TTITLE16=Keith, Toby - You Shouldn't Kiss Me Like That
TTITLE17=Judd, Cledus T - Goodbye Squirrel (Vocals)
TTITLE18=Judd, Cledus T - Indian Inlaws (Vocals)
TTITLE19=Judd, Cledus T - More Beaver (Vocals)
EXTD=
EXTT0=
EXTT1=
EXTT2=
EXTT3=
EXTT4=
EXTT5=
EXTT6=
EXTT7=
EXTT8=
EXTT9=
EXTT10=
EXTT11=
EXTT12=
EXTT13=
EXTT14=
EXTT15=
EXTT16=
EXTT17=
EXTT18=
EXTT19=
PLAYORDER=
